# xmcd
# 
# Track frame offsets:
#     150
#     15405
#     31027
#     42800
#     56827
#     73665
#     94207
#     116555
#     133737
#     154057
#     172465
#     188220
#     198077
#     215810
#     240125
#     252550
#     269175
# 
# Disc length: 4023
# 
# Revision: 16
# Processed by: cddbd v1.5.2PL0 Copyright (c) Steve Scherf et al.
# Submitted via: fre:ac v1.0.27
# 
DISCID=fb0fb511
DTITLE=松本孝弘 - THE HIT PARADE
DYEAR=2003
DGENRE=Rock
TTITLE0=勝手にしやがれ featuring 稲葉浩志
TTITLE1=異邦人 featuring ZARD
TTITLE2=涙の太陽 featuring 愛内里菜
TTITLE3=その気にさせないで featuring 三枝夕夏･北原愛子･高岡亜衣
TTITLE4=イミテイション・ゴールド featuring 倉木麻衣
TTITLE5=港のヨーコ・ヨコハマ・ヨコスカ
TTITLE6=雨の街を featuring 松田明子
TTITLE7=Paper Doll featuring Fayray
TTITLE8=「いちご白書」をもう一度 featuring 菅崎茜
TTITLE9=Foggy Night featuring 滴草由実
TTITLE10=少女A featuring 上原あずみ
TTITLE11=ビュン・ビュン featuring 川島だりあ
TTITLE12=パープルタウン ("You Oughta Know By Now"～"パープルタウン") featuring 竹井詩織里
TTITLE13=時に愛は featuring 宇徳敬子
TTITLE14=SPINNING TOE-HOLD
TTITLE15=一人 ～I Stand Alone～ featuring Jeffey Qwest
TTITLE16=私は風 featuring 中村由利
EXTD=YEAR: 2003
EXTT0=
EXTT1=
EXTT2=
EXTT3=
EXTT4=
EXTT5=
EXTT6=
EXTT7=
EXTT8=
EXTT9=
EXTT10=
EXTT11=
EXTT12=
EXTT13=
EXTT14=
EXTT15=
EXTT16=
PLAYORDER=
